PathFileType	4	(X/Y/Z)	C:/Users/beibeiliu/ov580/test_trc/User3\sequence.6_training_dense_left.trc
DataRate	CameraRate	NumFrames	NumMarkers	Units	OrigDataRate	OrigDataStartFrame	OrigNumFrames
120	120	13	19	mm	120	50	98
Frame#	Time	ThumbCMC			ThumbMCP			ThumbIP			ThumbTip			IndexMCP			IndexPIP			IndexTip			MiddleMCP			MiddlePIP			MiddleTip			RingMCP			RingPIP			RingTip			PinkyMCP			PinkyPIP			PinkyTip			BackHand1			BackHand2			BackHand3	
		X0	Y0	Z0	X1	Y1	Z1	X2	Y2	Z2	X3	Y3	Z3	X4	Y4	Z4	X5	Y5	Z5	X6	Y6	Z6	X7	Y7	Z7	X8	Y8	Z8	X9	Y9	Z9	X10	Y10	Z10	X11	Y11	Z11	X12	Y12	Z12	X13	Y13	Z13	X14	Y14	Z14	X15	Y15	Z15	X16	Y16	Z16	X17	Y17	Z17	X18	Y18	Z18	
49	0.408333	-80.3112	24.6925	-22.7595	-71.7787	8.60278	-48.1756	-71.0966	-5.20267	-76.8914	-89.7012	-18.9777	-93.8523	-95.7705	50.4155	-93.5634	-85.6575	51.7519	-119.757	-77.2889	46.375	-142.627	-110.226	16.9666	-98.3592	-95.5815	-11.9235	-95.7392	-101.457	-5.38382	-55.4715	-122.414	-2.17868	-84.689	-105.88	-24.1357	-68.4691	-108.513	-9.63819	-38.5291	-135.301	-7.05854	-73.0765	-115.832	-24.1034	-59.055	-118.95	-12.1751	-28.7519	-144.978	34.2851	-44.0441	-143.039	32.3967	-11.7162	-115.625	46.834	-25.6423	
50	0.416667	-75.7544	18.6427	-13.0792	-64.6241	4.0083	-44.7008	-65.0992	-8.52227	-71.5719	-79.5046	-20.6462	-92.8759	-81.6985	45.6021	-84.0482	-74.204	45.2036	-116.328	-61.2226	33.6858	-136.015	-102.456	17.131	-94.6875	-90.9749	-13.6588	-95.1031	-95.2898	-11.4348	-57.2959	-116.301	1.26671	-82.2975	-105.799	-26.3766	-66.6726	-105.211	-8.72029	-36.8333	-128.942	-10.1968	-72.1352	-116.729	-27.801	-56.347	-114.2	-12.8341	-30.3538	-136.027	35.9723	-39.4884	-139.734	34.8728	-10.4334	-107.054	45.6275	-22.2945	
51	0.425	-73.1593	15.4057	-9.27762	-59.56	0.741684	-39.4616	-62.726	-8.70489	-68.2572	-77.9787	-17.8654	-92.6188	-76.3676	44.2329	-83.4777	-64.5188	38.8948	-111.777	-55.877	16.7236	-131.539	-97.3173	20.342	-91.9151	-86.0802	-9.28556	-97.3919	-94.4392	-9.90689	-53.6168	-110.885	3.88411	-81.0835	-101.757	-23.7178	-67.5568	-105.338	-11.3848	-37.8126	-130.986	-5.86408	-70.9549	-113.857	-23.8393	-53.523	-113.13	-6.49855	-31.3474	-129.149	38.6055	-38.4577	-136.827	35.2875	-7.28572	-99.5149	46.5286	-19.0175	
52	0.433333	-75.8492	17.4332	-11.3792	-62.7161	3.27204	-36.7957	-59.9033	-5.26854	-73.5686	-76.2938	-13.6599	-91.5538	-75.7571	45.4887	-81.6181	-63.2368	39.8557	-109.921	-55.4744	15.3698	-128.288	-96.4938	21.9129	-94.8441	-85.7545	-6.87475	-97.4019	-88.2771	-9.2273	-55.7552	-115.129	7.02495	-79.4858	-102.755	-20.3155	-69.1494	-104.18	-7.86599	-37.1469	-129.207	-2.39125	-70.7025	-114.028	-20.1045	-53.6736	-115.472	-3.35513	-26.4905	-126.58	40.9208	-38.4937	-136.208	39.4421	-4.03791	-97.0279	48.0602	-19.392	
53	0.441667	-72.1835	17.9194	-9.34544	-59.7686	5.9259	-42.555	-58.0257	-3.7498	-73.2606	-74.0131	-10.9861	-90.2386	-72.1344	48.2928	-80.5328	-57.7958	43.5292	-109.157	-48.5375	26.4363	-127.616	-89.9734	25.4355	-93.8225	-84.5874	-7.0703	-95.3341	-89.8918	-8.86531	-56.562	-107.373	10.0265	-81.3041	-103.235	-17.4755	-70.7189	-100.273	-9.31371	-39.2097	-125.064	3.48394	-72.4942	-111.457	-16.9308	-56.9841	-112.002	-4.51163	-29.7248	-128.875	45.1447	-35.3796	-132.352	42.2976	-6.24494	-94.0589	50.1863	-19.33	
54	0.45	-69.7157	18.5795	-13.1884	-58.9954	5.0944	-39.1635	-56.3611	-4.11849	-71.0312	-71.4272	-11.295	-89.3329	-67.8782	47.1562	-81.1974	-52.0786	42.044	-110.509	-43.6247	27.1731	-127.796	-92.0251	25.1243	-92.9322	-82.1169	-7.6267	-93.7026	-87.3152	-9.4759	-54.8792	-109.799	9.13361	-80.3153	-103.563	-19.3392	-67.5872	-99.6521	-8.36687	-38.639	-122.106	0.755646	-72.9931	-111.318	-17.9362	-56.7455	-111.437	-2.95205	-31.2643	-125.339	45.3992	-37.9282	-131.652	39.5626	-5.89362	-92.1726	47.2688	-17.9414	
55	0.458333	-71.2463	13.5605	-9.85754	-56.3501	0.605819	-39.028	-56.925	-7.26061	-66.9296	-66.3191	-15.3718	-91.3705	-63.6133	42.3229	-77.3429	-47.1432	35.2018	-105.148	-37.7778	15.8848	-123.976	-83.9513	22.9246	-90.7124	-77.0017	-10.9334	-93.5246	-87.467	-14.7206	-57.7391	-102.967	9.7639	-79.253	-100.134	-22.6069	-65.5684	-99.3502	-10.8376	-37.0827	-121.131	-0.119503	-73.3605	-109.781	-19.7417	-58.4612	-114.03	-3.41032	-28.4042	-118.274	42.7235	-36.7259	-125.106	40.2914	-7.64861	-91.1116	45.9043	-13.8341	
56	0.466667	-68.4284	8.59532	-7.55825	-53.789	-5.31708	-34.337	-50.2165	-13.1466	-64.3177	-60.6858	-19.7117	-86.4235	-53.7487	37.0035	-74.0305	-37.4577	26.2125	-98.6721	-32.1617	1.25887	-111.922	-77.3771	18.7311	-89.8457	-76.1715	-14.6201	-91.0054	-88.2364	-15.4321	-54.0744	-99.3357	6.67265	-77.6035	-99.212	-24.4946	-64.7402	-97.1317	-11.0792	-35.1337	-116.862	2.41364	-71.4093	-109.509	-21.846	-58.4601	-113.892	-7.00638	-28.7986	-116.59	41.8282	-40.3834	-126.482	39.3812	-5.24196	-85.1367	39.7791	-14.8786	
57	0.475	-72.0773	4.22912	-1.25764	-56.7412	-8.49829	-27.889	-53.5252	-15.1978	-60.3844	-61.7688	-20.3157	-81.073	-47.5249	30.8814	-72.1667	-35.0377	17.2837	-96.3448	-34.1927	-13.1336	-102.54	-73.38	16.7156	-87.3078	-71.8811	-14.1731	-91.8835	-86.3765	-15.7862	-51.5969	-93.7337	1.22675	-78.6296	-95.3139	-26.4527	-65.4492	-98.3583	-15.5327	-36.4446	-114.535	-0.100884	-71.8349	-111.58	-24.3304	-54.0765	-115.202	-10.4254	-27.5782	-113.609	38.8729	-37.261	-120.223	39.0052	-6.06754	-86.0017	38.1384	-10.8058	
58	0.483333	-71.0976	7.39859	1.04656	-58.6227	-6.43645	-26.966	-51.0082	-15.2915	-54.041	-60.1346	-20.5436	-80.3696	-51.6206	33.6176	-69.3797	-35.733	20.3053	-93.9433	-34.795	-14.5577	-99.5622	-74.5809	18.1148	-84.4959	-70.5669	-16.4163	-85.4671	-83.6329	-13.8826	-48.6595	-95.1637	4.17273	-77.481	-94.921	-25.4266	-64.0996	-97.7419	-14.7587	-35.6899	-114.113	-2.37696	-72.3517	-107.58	-23.4846	-55.31	-113.088	-7.89073	-26.8513	-111.149	40.267	-40.0033	-126.792	38.9379	-8.19627	-89.8254	41.4748	-13.5047	
59	0.491667	-75.2416	21.1067	0.480194	-59.2137	5.56361	-26.6222	-49.7376	-5.34113	-52.7419	-59.1313	-16.1918	-76.1387	-59.2291	44.5665	-76.3932	-38.458	32.357	-97.0832	-31.0845	7.29426	-102.735	-77.6909	17.6244	-88.3517	-63.3986	-9.91596	-84.4231	-80.4824	-8.25868	-48.4392	-93.0609	-1.28296	-77.4555	-83.442	-23.2525	-57.7564	-94.4649	-6.66716	-29.8828	-112.172	-7.75608	-69.3864	-99.3407	-24.9085	-46.9841	-106.891	-8.95684	-27.3725	-128.034	34.4765	-42.428	-139.037	35.4296	-14.4241	-99.4542	48.8778	-17.3785	
60	0.5	-85.9924	39.8432	-3.97859	-63.4574	27.2911	-27.398	-46.7142	14.666	-55.3665	-51.9789	-2.27309	-71.1768	-81.7597	51.0188	-79.4651	-59.7421	49.4601	-103.653	-32.7651	30.7454	-111.195	-78.4923	22.7211	-87.0137	-56.4377	2.24487	-79.1915	-74.4585	7.455	-40.2253	-87.3694	-1.75973	-74.7365	-70.8361	-16.2699	-52.4731	-84.4209	-1.1144	-28.207	-98.7981	-14.1115	-65.269	-82.7748	-22.6142	-43.3561	-97.3906	-9.52824	-20.4942	-132.403	21.1696	-49.2502	-146.247	20.9594	-15.9614	-121.228	43.8597	-26.0785	
61	0.508333	-102.803	45.4286	-12.3464	-74.6729	42.7734	-33.4733	-55.0903	34.5916	-56.4425	-49.3059	11.3063	-74.0817	-104.732	42.9631	-88.3924	-84.1954	50.3385	-113.439	-54.8575	52.5207	-121.027	-84.6201	19.4422	-89.559	-57.6929	13.6336	-74.6361	-79.5641	15.1453	-41.9922	-84.48	-5.13246	-73.0204	-61.9645	-2.44688	-51.432	-86.0566	3.03823	-27.4033	-84.5233	-20.4947	-62.6525	-69.6894	-12.7279	-39.5245	-91.4911	-5.2268	-22.1328	-133.798	-2.74968	-49.7304	-145.014	-2.99284	-18.907	-138.083	33.5262	-29.5472	
